# xmcd CD database file
#
# Track frame offsets:
#	150
#	21430
#	37327
#	63132
#	88505
#	120745
#	145730
#	163117
#	181930
#	205995
#	226155
#	250912
#
# Disc length: 3689 seconds
#
# Revision: 0
# Processed by: cddbd v1.5.1PL0 Copyright (c) Steve Scherf et al.
# Submitted via: CDex 1.51
#
DISCID=a30e670c
DTITLE=Greetje Kauffeld - Devil may care
DYEAR=2002
DGENRE=Jazz
TTITLE0=Devil may care
TTITLE1=Someone like you
TTITLE2=all the things you are
TTITLE3=all the way
TTITLE4=you leave me breathless
TTITLE5=growing up
TTITLE6=frim fram sauce
TTITLE7=somebody loves me
TTITLE8=falling in love with you
TTITLE9=more than you know
TTITLE10=for all we know
TTITLE11=just in time
EXTD=YEAR: 2002
EXTT0=
EXTT1=
EXTT2=
EXTT3=
EXTT4=
EXTT5=
EXTT6=
EXTT7=
EXTT8=
EXTT9=
EXTT10=
EXTT11=
PLAYORDER=
